Coordinates
version=1
nRows=21
nColumns=28
inDegrees=yes

Units are S.I. units (second, meters, Newtons, ...)
If the header above contains a line with 'inDegrees', this indicates whether rotational values are in degrees (yes) or radians (no).

endheader
time	pelvis_tilt	pelvis_list	pelvis_rotation	pelvis_tx	pelvis_ty	pelvis_tz	hip_flexion_r	hip_adduction_r	hip_rotation_r	knee_angle_r	knee_rotation_r	knee_adduction_r	ankle_angle_r	subtalar_angle_r	mtp_angle_r	hip_flexion_l	hip_adduction_l	hip_rotation_l	knee_angle_l	knee_rotation_l	knee_adduction_l	ankle_angle_l	subtalar_angle_l	mtp_angle_l	lumbar_extension	lumbar_bending	lumbar_rotation
      0.00000000	     -4.79738232	     10.57268428	    -91.80585348	     -0.19786172	      0.95345791	     -0.75808483	      6.70389813	      5.71206806	     13.44795441	    -15.09163481	    -19.37007987	      6.93335222	     13.48728872	     -7.89271055	     -0.52764547	     38.57362743	     -7.10938124	      0.31951596	    -10.49407652	     18.13749674	     -0.96218277	     13.44754242	      4.16896046	     -0.47030267	      0.00000000	      0.00000000	      0.00000000
      0.01000000	     -4.80863706	     10.66286396	    -92.09617622	     -0.19699733	      0.95212768	     -0.74589251	      6.22425391	      5.44111891	     13.02924014	    -15.62533082	    -19.17811137	      7.18160545	     14.12771855	     -6.45820593	     -0.48499255	     37.46230428	     -6.90193764	      1.57205973	     -6.30958075	     19.74004811	     -0.66599982	     12.92356329	      3.45106807	     -0.05886190	      0.00000000	      0.00000000	      0.00000000
      0.02000000	     -4.84821280	     10.74932622	    -92.45634910	     -0.19680290	      0.95056784	     -0.73349133	      5.80027064	      5.32264913	     12.87988558	    -16.19889162	    -18.92829903	      7.35253874	     14.51970294	     -5.93496015	     -0.35158128	     36.98194330	     -6.68005198	      1.35154788	     -3.71432993	     20.63828424	      0.29660638	     13.08786886	      4.74899833	      0.07318728	      0.00000000	      0.00000000	      0.00000000
      0.03000000	     -4.87774049	     10.77837292	    -92.88544704	     -0.19654687	      0.94891756	     -0.72133714	      5.47286310	      5.14403415	     12.76206793	    -17.08299859	    -18.21465476	      7.73300283	     14.93081303	     -5.91184060	     -0.39520027	     36.88071032	     -6.55041590	      1.43082074	     -2.38787695	     22.11720571	      0.97132624	     13.33451329	      5.98270165	     -0.05862531	      0.00000000	      0.00000000	      0.00000000
      0.04000000	     -5.10693102	     10.70531933	    -93.26521403	     -0.19651261	      0.94736515	     -0.70926651	      5.05856575	      5.18998723	     12.80603379	    -17.90871248	    -17.98823627	      7.96428462	     15.09277927	     -5.37203210	     -0.37820249	     37.02537319	     -6.68087810	      1.92387627	     -2.20179266	     23.47765910	      1.37152954	     13.78093473	      7.28442227	     -0.20564211	      0.00000000	      0.00000000	      0.00000000
      0.05000000	     -5.39218106	     10.73485062	    -93.64913106	     -0.19649978	      0.94553870	     -0.69712352	      4.83154953	      5.39106442	     12.83388504	    -18.88368929	    -17.25061247	      8.08506144	     15.15975854	     -5.44925238	     -0.46207252	     37.52818220	     -7.01312025	      2.53954314	     -3.06908729	     24.68187022	      1.31409088	     14.38092176	      8.35741389	     -0.20483909	      0.00000000	      0.00000000	      0.00000000
      0.06000000	     -5.62096182	     10.59487730	    -94.03059287	     -0.19634763	      0.94410159	     -0.68479894	      4.37813351	      5.56022959	     13.11908802	    -19.77878841	    -16.77041639	      8.13285973	     15.24110120	     -5.55326140	     -0.52461750	     37.96251374	     -7.32722710	      2.89022430	     -4.64395229	     24.93030113	      1.01469569	     14.66879655	      8.36679994	     -0.09435404	      0.00000000	      0.00000000	      0.00000000
      0.07000000	     -6.03810692	     10.64287997	    -94.34687816	     -0.19603648	      0.94218318	     -0.67241446	      4.17171623	      5.88770418	     13.47652857	    -20.75256601	    -16.51350224	      8.31231006	     15.36653118	     -5.32203390	     -1.15396576	     38.79881896	     -7.93544506	      3.22514580	     -7.05002605	     24.51800669	      0.26295944	     15.38309214	      7.98250153	      0.17023705	      0.00000000	      0.00000000	      0.00000000
      0.08000000	     -6.45798998	     10.70640851	    -94.55969118	     -0.19565426	      0.94030848	     -0.65967401	      3.91770822	      6.24036895	     13.79843036	    -21.65506913	    -15.99803829	      8.38162993	     14.54737495	     -5.86152600	     -1.32476422	     39.78140841	     -8.56789499	      2.94292334	    -10.04812049	     23.07817310	     -0.64562948	     15.80443310	      7.22408737	      0.38667711	      0.00000000	      0.00000000	      0.00000000
      0.09000000	     -6.80138331	     10.53536632	    -94.86741300	     -0.19523087	      0.93873603	     -0.64659673	      3.48749209	      6.41054950	     14.06356685	    -22.68565569	    -15.59507409	      8.59082746	     14.22122672	     -5.76524368	     -1.51460957	     40.28796082	     -9.22862346	      2.60066385	    -12.89125789	     21.54275614	     -1.65645997	     16.10137181	      6.40360061	      0.49503322	      0.00000000	      0.00000000	      0.00000000
      0.10000000	     -6.96603055	     10.45637264	    -95.22896126	     -0.19444757	      0.93700062	     -0.63296698	      3.25431194	      6.31855581	     14.06909797	    -23.93228818	    -15.03235199	      8.79655297	     13.87534875	     -5.58168581	     -1.70060938	     40.65264433	     -9.55598547	      2.17170984	    -15.30550111	     19.95593511	     -2.19123761	     16.30420158	      5.76152983	      0.69061031	      0.00000000	      0.00000000	      0.00000000
      0.11000000	     -6.65013606	     10.36200497	    -95.75271997	     -0.19388971	      0.93553315	     -0.61879040	      3.05889822	      5.62606947	     13.93563082	    -25.19097179	    -14.03758795	      9.09683729	     13.35882037	     -5.91009147	     -1.93981987	     40.75030015	     -9.49744411	      0.72929402	    -17.16343286	     18.17934732	     -2.38934364	     16.34854982	      5.19598595	      1.28610082	      0.00000000	      0.00000000	      0.00000000
      0.12000000	     -6.14404322	     10.30259188	    -96.35876192	     -0.19273621	      0.93426697	     -0.60472502	      3.07815993	      4.60862338	     14.04938032	    -26.68094090	    -13.08269627	      9.64976717	     12.77003103	     -6.13907891	     -2.24566690	     40.69717727	     -9.09237609	     -1.07758154	    -18.33341019	     16.05416875	     -2.07422448	     15.88179496	      4.22455795	      2.14243514	      0.00000000	      0.00000000	      0.00000000
      0.13000000	     -5.58587467	     10.24991095	    -96.82340208	     -0.19155921	      0.93330956	     -0.59079030	      3.61729730	      3.56783085	     13.37804185	    -28.89431683	    -12.41623433	      9.87695772	     11.95968752	     -5.03074622	     -2.18263778	     40.49426153	     -8.51908463	     -2.81612319	    -18.88578406	     13.61492154	     -1.52912634	     14.07365492	      2.15840940	      3.07734833	      0.00000000	      0.00000000	      0.00000000
      0.14000000	     -4.37613595	     10.24053073	    -97.42788475	     -0.19053287	      0.93318168	     -0.57706163	      4.37274254	      1.84391629	     13.21621648	    -31.07940622	    -11.20228577	     10.37028297	     10.96313485	     -5.10082960	     -1.80959371	     39.96932404	     -7.35890474	     -4.82903087	    -18.73067720	     10.30178504	     -0.62802766	     10.87703963	     -1.64654328	      3.97240355	      0.00000000	      0.00000000	      0.00000000
      0.15000000	     -3.21180155	     10.35877109	    -97.64529625	     -0.18965872	      0.93297022	     -0.56397463	      5.45555701	      0.42974117	     12.89622576	    -33.42915789	     -9.59801690	     10.60681152	      9.08190001	     -6.76262533	     -1.70855685	     39.63623860	     -6.28344743	     -5.98516022	    -18.81234559	      7.25953767	     -0.29836219	      8.11690463	     -6.26259636	      4.23653048	      0.00000000	      0.00000000	      0.00000000
      0.16000000	     -2.08229604	     10.47701066	    -97.66155368	     -0.18815897	      0.93269841	     -0.55206071	      7.09205843	     -1.20384375	     12.49732090	    -36.52712633	     -8.67858208	     11.22454426	      6.97211738	     -7.04471484	     -1.46884263	     39.52742714	     -5.25708304	     -5.97589306	    -19.32902635	      6.30005301	     -0.56561549	      6.00031964	    -10.05742768	      3.73651209	      0.00000000	      0.00000000	      0.00000000
      0.17000000	     -1.13102822	     10.82518432	    -97.54940805	     -0.18687065	      0.93198829	     -0.54051678	      9.19426206	     -2.54178058	     12.39946544	    -39.87756767	     -8.12244184	     11.89770912	      4.28752861	     -7.49014188	     -0.59845364	     40.02378240	     -4.51529554	     -4.81812204	    -20.68599481	      7.32117868	     -1.35438943	      5.04283174	    -11.62373169	      2.25506160	      0.00000000	      0.00000000	      0.00000000
      0.18000000	      0.04477246	     10.47035114	    -97.83034493	     -0.18676358	      0.93237051	     -0.52846332	     10.70282085	     -4.01916925	     12.71162950	    -43.28506976	     -7.03768477	     12.43845643	      1.71367428	     -8.08134548	     -0.25629578	     39.94332652	     -3.78256694	     -4.85161558	    -22.63927058	      8.57109479	     -1.89604338	      5.38442257	    -10.19470769	      1.22546524	      0.00000000	      0.00000000	      0.00000000
      0.19000000	      1.20121044	     10.23271795	    -97.70030153	     -0.18599070	      0.93255274	     -0.51622806	     12.40411415	     -5.55805601	     12.56210842	    -46.62865509	     -5.77631350	     12.85384942	     -1.42798257	     -9.41318238	     -0.05170500	     39.84073083	     -2.69710210	     -3.55351708	    -24.30152302	      9.94996755	     -2.82480487	      6.11630487	     -9.29326676	      0.62326383	      0.00000000	      0.00000000	      0.00000000
      0.20000000	      2.34401950	     10.10392702	    -97.33323887	     -0.18467154	      0.93251113	     -0.50487804	     14.41165179	     -7.18933247	     12.52386403	    -50.12709287	     -4.74009916	     13.65967182	     -4.82367495	    -11.47267240	     -0.20283079	     39.72053965	     -1.43306082	     -1.74080163	    -25.53357029	     10.86193537	     -4.10795561	      6.27823927	    -10.14658450	      0.30708157	      0.00000000	      0.00000000	      0.00000000
